PathFileType	4	(X/Y/Z)	Kaydara																																																																																																																									
DataRate	CameraRate	NumFrames	NumMarkers	Units	OrigDataRate	OrigDataStartFrame	OrigNumFrames																																																																																																																					
30	30	5	41	mm	30	91	300																																																																																																																					
Frame#	Time	PAIB_LFHD			PAIB_RFHD			PAIB_LBHD			PAIB_RBHD			PAIB_LFTShould			PAIB_RFTShould			PAIB_LRRShould			PAIB_RRRShould			PAIB_T10			PAIB_STRN			PAIB_TRUN			PAIB_LSHO			PAIB_LUPA			PAIB_LELB			PAIB_LFRM			PAIB_LWRA			PAIB_LWRB			PAIB_LFIN			PAIB_RSHO			PAIB_RUPA			PAIB_RELB			PAIB_RFRM			PAIB_RWRA			PAIB_RWRB			PAIB_RFIN			PAIB_LFWT			PAIB_RFWT			PAIB_LBWT			PAIB_RBWT			PAIB_LTHI			PAIB_LKNE			PAIB_LSHN			PAIB_LANK			PAIB_LHEE			PAIB_LTOE			PAIB_RTHI			PAIB_RKNE			PAIB_RSHN			PAIB_RANK			PAIB_RHEE			PAIB_RTOE		
		X1	Y1	Z1	X2	Y2	Z2	X3	Y3	Z3	X4	Y4	Z4	X5	Y5	Z5	X6	Y6	Z6	X7	Y7	Z7	X8	Y8	Z8	X9	Y9	Z9	X10	Y10	Z10	X11	Y11	Z11	X12	Y12	Z12	X13	Y13	Z13	X14	Y14	Z14	X15	Y15	Z15	X16	Y16	Z16	X17	Y17	Z17	X18	Y18	Z18	X19	Y19	Z19	X20	Y20	Z20	X21	Y21	Z21	X22	Y22	Z22	X23	Y23	Z23	X24	Y24	Z24	X25	Y25	Z25	X26	Y26	Z26	X27	Y27	Z27	X28	Y28	Z28	X29	Y29	Z29	X30	Y30	Z30	X31	Y31	Z31	X32	Y32	Z32	X33	Y33	Z33	X34	Y34	Z34	X35	Y35	Z35	X36	Y36	Z36	X37	Y37	Z37	X38	Y38	Z38	X39	Y39	Z39	X40	Y40	Z40	X41	Y41	Z41
																																																																																																																												
76	3	269.32764	1608.58856	-1506.93466	83.85258	1612.26273	-1521.31653	287.19601	1640.31113	-1630.57159	84.11538	1649.11148	-1629.8642	247.59495	1388.24539	-1619.11194	126.68501	1382.64816	-1625.46677	262.38455	1483.16589	-1742.29034	107.12947	1477.98737	-1739.82773	190.5909	1344.82086	-1857.62772	194.54342	1314.11835	-1601.12732	196.25759	1210.07851	-1602.56744	378.26851	1418.54736	-1678.23212	423.05927	1189.16367	-1691.62308	443.59661	1104.30161	-1734.05853	450.69923	987.83432	-1695.50247	374.73137	873.05801	-1622.92938	423.32191	856.05331	-1684.10706	424.0699	817.05055	-1621.74454	0.01697	1395.89066	-1676.19415	-57.01772	1228.41087	-1742.73529	-74.08212	1113.2373	-1772.3703	-86.63964	973.7249	-1758.89008	-22.5369	859.70215	-1675.92484	-90.61816	850.55344	-1724.34692	-80.12573	807.12875	-1664.00421	308.03028	947.11655	-1672.285	73.9281	968.24448	-1658.30154	236.26637	1018.26187	-1878.92502	91.62493	1023.24394	-1872.74994	272.67578	758.7101	-1916.53809	309.24603	497.54875	-1880.64819	277.76041	319.29768	-1950.83008	269.95228	185.2203	-2107.26349	212.36443	198.04716	-2151.68503	258.21121	72.77547	-1975.11459	35.41251	707.27028	-1825.46829	45.67244	480.99052	-1703.75992	113.34421	310.41388	-1646.47278	97.05987	94.59622	-1689.93973	161.12392	99.54921	-1735.93658	108.63338	76.46226	-1508.95325
77	3.033	262.84111	1612.94617	-1489.54453	76.18148	1614.41467	-1501.98898	279.31826	1644.40216	-1613.54935	76.1585	1650.65933	-1611.21826	242.19242	1391.9455	-1601.22772	121.7077	1384.77509	-1605.327	254.03147	1486.98456	-1725.03403	99.08475	1479.65454	-1719.14932	181.39244	1347.03079	-1838.08655	191.02993	1317.28989	-1582.21115	193.45428	1213.0645	-1583.37036	371.50398	1423.99155	-1662.61414	419.81884	1195.40489	-1675.23331	442.00218	1110.43327	-1717.47314	446.87054	994.12651	-1675.98175	368.08361	882.94785	-1601.55365	416.91418	863.09929	-1661.74545	415.48794	825.33463	-1598.54095	-6.17229	1397.16461	-1653.16788	-64.06956	1229.7934	-1719.4902	-81.35381	1114.49844	-1748.72574	-92.03198	974.57481	-1733.34412	-25.36593	862.99248	-1648.93204	-93.54954	851.79367	-1696.84906	-82.2933	809.73831	-1635.88135	306.56813	951.11252	-1655.60104	71.77045	968.52959	-1638.58734	230.50583	1021.44066	-1861.28204	86.12559	1025.04662	-1853.32367	268.54225	758.46382	-1898.37158	310.14936	497.98908	-1856.0675	278.12784	321.74274	-1932.61078	267.79501	195.44409	-2095.24506	209.25173	210.80183	-2137.74551	257.01141	72.58265	-1973.21014	34.62343	709.83131	-1812.45651	44.58705	480.51834	-1696.61575	112.26327	309.59129	-1641.50223	98.07722	94.72057	-1688.89816	162.51856	100.11877	-1735.04913	110.20507	75.55386	-1507.82547
78	3.067	256.8544	1615.85999	-1472.74582	68.936	1615.96466	-1482.95364	271.91446	1646.72226	-1596.93283	68.72425	1651.58676	-1592.95837	237.52789	1394.10629	-1584.17999	116.8116	1385.58258	-1586.32935	246.18734	1489.23965	-1709.02756	91.44356	1479.85306	-1699.86206	173.03747	1348.08914	-1820.22537	187.65301	1319.36523	-1563.66898	190.2327	1214.69772	-1565.09354	364.82536	1426.65924	-1648.55087	417.54791	1199.3251	-1660.81146	441.11015	1114.7847	-1701.99448	443.43773	998.98232	-1655.57907	360.35728	891.67892	-1580.04303	411.28201	868.78601	-1637.35489	406.80347	833.90984	-1572.87231	-11.88118	1396.98318	-1632.85995	-71.74528	1229.40575	-1696.31226	-89.49866	1113.52089	-1724.01947	-97.6628	973.58696	-1705.22842	-27.51938	865.03357	-1620.6427	-96.42512	851.61682	-1666.48636	-83.20218	811.4711	-1604.63669	303.55278	953.65883	-1638.93219	68.84368	969.33617	-1620.19775	226.97094	1022.89848	-1844.29947	82.6081	1026.83334	-1835.40955	265.11436	754.9353	-1876.78009	313.50306	497.02354	-1830.63721	280.1445	323.35716	-1913.00323	266.38824	205.32162	-2081.25626	206.59138	223.13929	-2121.1142	255.88028	72.55195	-1970.65094	32.02709	712.25441	-1798.8327	42.06028	480.56355	-1688.6232	110.7406	308.73995	-1636.88263	97.51227	94.8695	-1688.23029	161.80815	101.0927	-1734.63837	110.73907	75.19156	-1507.60559
79	3.1	250.99379	1617.01767	-1456.05576	65.5654	1615.75119	-1466.94717	265.313	1648.04657	-1580.31952	62.11062	1651.99158	-1575.46799	233.08561	1395.42084	-1567.9776	112.35549	1385.86533	-1568.7587	239.35673	1490.84274	-1693.30139	84.90605	1479.75845	-1682.12494	166.20789	1348.97827	-1803.55927	184.06496	1320.2002	-1546.71234	187.34766	1215.67078	-1548.22266	359.2226	1428.9534	-1634.45648	415.04993	1202.54272	-1647.93152	438.92906	1118.2206	-1688.12317	439.77806	1003.47694	-1637.28577	354.92081	900.31357	-1558.30734	406.3752	874.84406	-1614.52148	400.39982	842.61116	-1548.07587	-16.75351	1396.61163	-1613.77594	-77.99402	1228.53592	-1673.36639	-96.62077	1112.18185	-1698.50662	-103.09041	972.62527	-1675.89752	-28.73338	867.09312	-1590.73013	-99.22239	851.59843	-1634.06601	-83.4411	813.50685	-1571.54388	300.65044	955.12405	-1623.28369	65.6028	970.2343	-1601.90201	223.65887	1023.50418	-1828.10349	79.21371	1028.53027	-1818.14148	262.83932	749.33548	-1854.53247	317.88006	495.07416	-1803.41476	282.85858	324.45335	-1890.74799	266.56773	215.39982	-2064.76807	205.17401	235.27927	-2101.20636	254.04524	72.77304	-1966.12549	27.75037	714.66866	-1784.69376	40.25577	481.39019	-1677.09412	109.30887	308.01107	-1631.99051	96.88818	95.01949	-1687.66205	160.88774	102.11627	-1734.25858	111.42926	74.98988	-1507.54715
80	3.133	245.30415	1617.10815	-1439.70139	60.06041	1615.06653	-1450.48477	259.67163	1648.99094	-1563.89175	56.40483	1651.87408	-1559.0062	229.13353	1396.60919	-1552.92191	108.58986	1386.0994	-1552.70401	233.67777	1492.31216	-1678.1839	79.57237	1479.79248	-1665.66284	160.58781	1349.58191	-1787.71744	180.72483	1320.95718	-1531.26801	184.96906	1216.44646	-1532.82425	354.56314	1431.58859	-1620.15869	412.03892	1205.71404	-1635.13779	434.88239	1120.7692	-1674.91409	435.95592	1007.42241	-1621.5976	352.11941	908.41133	-1536.30875	400.88005	879.91364	-1593.76465	397.2007	850.18387	-1525.96085	-20.54108	1396.63361	-1595.88699	-82.58913	1227.98523	-1651.46805	-102.02316	1111.10031	-1673.76617	-107.07334	972.24556	-1646.88507	-30.17118	869.81659	-1560.45029	-101.62138	852.66068	-1601.48331	-83.91573	816.60614	-1538.22052	297.86396	956.39313	-1608.43887	63.32932	970.0106	-1586.7926	219.28545	1023.42674	-1812.95929	74.92831	1029.2382	-1801.56586	261.57061	743.06679	-1832.22229	321.37978	491.98921	-1771.87592	284.25861	325.12527	-1865.13107	266.92133	224.9988	-2044.21783	205.86231	248.0481	-2079.30298	253.02475	74.87722	-1956.69937	25.08994	716.26755	-1771.7601	38.30455	481.36768	-1668.98834	108.03688	307.19294	-1627.38205	96.77945	95.19121	-1687.16553	160.6444	102.93924	-1733.8266	112.10043	74.72569	-1507.1814
